# xmcd
#
# Track frame offsets:
#	180
#	20877
#	40234
#	71209
#	91652
#	110202
#	128744
#	144477
#	173637
#	199183
#	222589
#	242757
#	262643
#	287407
#	305259
#
# Disc length: 4304 seconds
#
# Revision: 0
# Processed by: cddbd v1.4PL0 Copyright (c) Steve Scherf et al.
# Submitted via: EasyCDDAExtractor 4.5.2.1
#
DISCID=da10ce0f
DTITLE=Chris Rea - The very best
DYEAR=1900
DGENRE=
TTITLE0=Josephine
TTITLE1=Let's dance
TTITLE2=On the beach
TTITLE3=The road to hell
TTITLE4=Fool
TTITLE5=Wind town
TTITLE6=I can hear your heartbeat
TTITLE7=Auberge
TTITLE8=Loving you again
TTITLE9=Texas
TTITLE10=Too much pride
TTITLE11=Working on it
TTITLE12=And you my love
TTITLE13=Julia
TTITLE14=Red shoes
EXTD=
EXTT0=
EXTT1=
EXTT2=
EXTT3=
EXTT4=
EXTT5=
EXTT6=
EXTT7=
EXTT8=
EXTT9=
EXTT10=
EXTT11=
EXTT12=
EXTT13=
EXTT14=
PLAYORDER=
